<mxfile host="app.diagrams.net" modified="2020-04-28T15:03:28.406Z" agent="5.0 (Macintosh; Intel Mac OS X 10_15_1) AppleWebKit/537.36 (KHTML, like Gecko) Chrome/81.0.4044.122 Safari/537.36" etag="9wY1PI6rgqzrH2_w0l6O" version="13.0.2" type="github" pages="3">
  <diagram id="XnMkDaOkkMK2pUcaQcO5" name="01 - listener">
    <mxGraphModel dx="715" dy="352" grid="1" gridSize="10" guides="1" tooltips="1" connect="1" arrows="1" fold="1" page="1" pageScale="1" pageWidth="1920" pageHeight="1200" math="0" shadow="0">
      <root>
        <mxCell id="0" />
        <mxCell id="1" parent="0" />
        <mxCell id="knFU9iSai9PlR1MATkQc-1" value="Publisher" style="rounded=0;whiteSpace=wrap;html=1;fillColor=#f5f5f5;strokeColor=#666666;fontColor=#333333;fontStyle=0;fontSize=16;" parent="1" vertex="1">
          <mxGeometry x="610" y="260" width="190" height="30" as="geometry" />
        </mxCell>
        <mxCell id="knFU9iSai9PlR1MATkQc-2" value="" style="rounded=0;whiteSpace=wrap;html=1;fillColor=#f5f5f5;strokeColor=#666666;fontColor=#333333;" parent="1" vertex="1">
          <mxGeometry x="610" y="290" width="190" height="70" as="geometry" />
        </mxCell>
        <mxCell id="knFU9iSai9PlR1MATkQc-3" value="" style="rounded=0;whiteSpace=wrap;html=1;fillColor=#f5f5f5;strokeColor=#666666;fontColor=#333333;" parent="1" vertex="1">
          <mxGeometry x="950" y="300" width="190" height="310" as="geometry" />
        </mxCell>
        <mxCell id="knFU9iSai9PlR1MATkQc-4" value="Orders Service A" style="rounded=0;whiteSpace=wrap;html=1;fillColor=#f5f5f5;strokeColor=#666666;fontColor=#333333;fontStyle=0;fontSize=16;" parent="1" vertex="1">
          <mxGeometry x="610" y="410" width="190" height="30" as="geometry" />
        </mxCell>
        <mxCell id="knFU9iSai9PlR1MATkQc-5" value="NATS Streaming" style="rounded=0;whiteSpace=wrap;html=1;fillColor=#fff2cc;strokeColor=#d6b656;fontStyle=1;fontSize=16;" parent="1" vertex="1">
          <mxGeometry x="950" y="260" width="190" height="40" as="geometry" />
        </mxCell>
        <mxCell id="knFU9iSai9PlR1MATkQc-6" value="" style="rounded=0;whiteSpace=wrap;html=1;fillColor=#f5f5f5;strokeColor=#666666;fontColor=#333333;" parent="1" vertex="1">
          <mxGeometry x="610" y="440" width="190" height="60" as="geometry" />
        </mxCell>
        <mxCell id="knFU9iSai9PlR1MATkQc-7" value="List of Channels" style="rounded=0;whiteSpace=wrap;html=1;fontSize=12;fillColor=#dae8fc;strokeColor=#6c8ebf;fontStyle=1" parent="1" vertex="1">
          <mxGeometry x="960" y="320" width="170" height="30" as="geometry" />
        </mxCell>
        <mxCell id="knFU9iSai9PlR1MATkQc-8" value="" style="rounded=0;whiteSpace=wrap;html=1;fontSize=12;fillColor=#dae8fc;strokeColor=#6c8ebf;fontStyle=1" parent="1" vertex="1">
          <mxGeometry x="960" y="350" width="170" height="250" as="geometry" />
        </mxCell>
        <mxCell id="knFU9iSai9PlR1MATkQc-9" value="&lt;font style=&quot;font-size: 11px&quot;&gt;&lt;b&gt;ticket:created&lt;/b&gt;&lt;br style=&quot;font-size: 11px&quot;&gt;&lt;/font&gt;" style="rounded=0;whiteSpace=wrap;html=1;fontSize=11;align=center;" parent="1" vertex="1">
          <mxGeometry x="970" y="360" width="150" height="30" as="geometry" />
        </mxCell>
        <mxCell id="knFU9iSai9PlR1MATkQc-10" value="subscription" style="rounded=0;whiteSpace=wrap;html=1;fontSize=18;align=center;fillColor=#d5e8d4;strokeColor=#82b366;" parent="1" vertex="1">
          <mxGeometry x="625" y="450" width="160" height="40" as="geometry" />
        </mxCell>
        <mxCell id="knFU9iSai9PlR1MATkQc-11" value="&lt;font style=&quot;font-size: 11px&quot;&gt;&lt;br style=&quot;font-size: 11px&quot;&gt;&lt;/font&gt;" style="rounded=0;whiteSpace=wrap;html=1;fontSize=11;align=center;" parent="1" vertex="1">
          <mxGeometry x="970" y="390" width="150" height="190" as="geometry" />
        </mxCell>
        <mxCell id="knFU9iSai9PlR1MATkQc-18" value="Queue Groups" style="rounded=0;whiteSpace=wrap;html=1;fontSize=13;align=center;fillColor=#d5e8d4;strokeColor=#82b366;" parent="1" vertex="1">
          <mxGeometry x="980" y="422.5" width="130" height="20" as="geometry" />
        </mxCell>
        <mxCell id="knFU9iSai9PlR1MATkQc-19" value="" style="rounded=0;whiteSpace=wrap;html=1;fontSize=13;align=center;fillColor=#d5e8d4;strokeColor=#82b366;" parent="1" vertex="1">
          <mxGeometry x="980" y="442.5" width="130" height="45" as="geometry" />
        </mxCell>
        <mxCell id="knFU9iSai9PlR1MATkQc-20" value="&#39;orders-service&#39;" style="rounded=0;whiteSpace=wrap;html=1;fontSize=13;align=center;fillColor=#d5e8d4;strokeColor=#82b366;" parent="1" vertex="1">
          <mxGeometry x="990" y="452.5" width="110" height="20" as="geometry" />
        </mxCell>
        <mxCell id="knFU9iSai9PlR1MATkQc-28" value="Orders Service B" style="rounded=0;whiteSpace=wrap;html=1;fillColor=#f5f5f5;strokeColor=#666666;fontColor=#333333;fontStyle=0;fontSize=16;" parent="1" vertex="1">
          <mxGeometry x="610" y="505" width="190" height="30" as="geometry" />
        </mxCell>
        <mxCell id="knFU9iSai9PlR1MATkQc-29" value="" style="rounded=0;whiteSpace=wrap;html=1;fillColor=#f5f5f5;strokeColor=#666666;fontColor=#333333;" parent="1" vertex="1">
          <mxGeometry x="610" y="535" width="190" height="60" as="geometry" />
        </mxCell>
        <mxCell id="knFU9iSai9PlR1MATkQc-30" value="subscription" style="rounded=0;whiteSpace=wrap;html=1;fontSize=18;align=center;fillColor=#d5e8d4;strokeColor=#82b366;" parent="1" vertex="1">
          <mxGeometry x="625" y="545" width="160" height="40" as="geometry" />
        </mxCell>
      </root>
    </mxGraphModel>
  </diagram>
  <diagram id="8azAaEPp1HsWTgUEkDEf" name="03 - id">
    <mxGraphModel dx="1502" dy="739" grid="1" gridSize="10" guides="1" tooltips="1" connect="1" arrows="1" fold="1" page="1" pageScale="1" pageWidth="1920" pageHeight="1200" math="0" shadow="0">
      <root>
        <mxCell id="HbcU3tZbMtFgkvGHTX_1-0" />
        <mxCell id="HbcU3tZbMtFgkvGHTX_1-1" parent="HbcU3tZbMtFgkvGHTX_1-0" />
        <mxCell id="HbcU3tZbMtFgkvGHTX_1-2" value="Tickets Service" style="rounded=0;whiteSpace=wrap;html=1;fontSize=19;fillColor=#f5f5f5;strokeColor=#666666;fontColor=#333333;fontStyle=1" parent="HbcU3tZbMtFgkvGHTX_1-1" vertex="1">
          <mxGeometry x="400" y="230" width="250" height="25" as="geometry" />
        </mxCell>
        <mxCell id="HbcU3tZbMtFgkvGHTX_1-3" value="" style="rounded=0;whiteSpace=wrap;html=1;fontSize=22;fillColor=#f5f5f5;strokeColor=#666666;fontColor=#333333;fontStyle=1" parent="HbcU3tZbMtFgkvGHTX_1-1" vertex="1">
          <mxGeometry x="400" y="255" width="250" height="130" as="geometry" />
        </mxCell>
        <mxCell id="HbcU3tZbMtFgkvGHTX_1-4" value="Orders Service" style="rounded=0;whiteSpace=wrap;html=1;fontSize=19;fillColor=#f5f5f5;strokeColor=#666666;fontColor=#333333;fontStyle=1" parent="HbcU3tZbMtFgkvGHTX_1-1" vertex="1">
          <mxGeometry x="680" y="230" width="250" height="25" as="geometry" />
        </mxCell>
        <mxCell id="HbcU3tZbMtFgkvGHTX_1-5" value="" style="rounded=0;whiteSpace=wrap;html=1;fontSize=22;fillColor=#f5f5f5;strokeColor=#666666;fontColor=#333333;fontStyle=1" parent="HbcU3tZbMtFgkvGHTX_1-1" vertex="1">
          <mxGeometry x="680" y="255" width="250" height="130" as="geometry" />
        </mxCell>
        <mxCell id="HbcU3tZbMtFgkvGHTX_1-6" value="tickets" style="rounded=0;whiteSpace=wrap;html=1;fontSize=19;fillColor=#d5e8d4;strokeColor=#82b366;" parent="HbcU3tZbMtFgkvGHTX_1-1" vertex="1">
          <mxGeometry x="410" y="270" width="230" height="30" as="geometry" />
        </mxCell>
        <mxCell id="HbcU3tZbMtFgkvGHTX_1-8" value="tickets" style="rounded=0;whiteSpace=wrap;html=1;fontSize=19;fillColor=#e1d5e7;strokeColor=#9673a6;" parent="HbcU3tZbMtFgkvGHTX_1-1" vertex="1">
          <mxGeometry x="690" y="270" width="230" height="30" as="geometry" />
        </mxCell>
        <mxCell id="HbcU3tZbMtFgkvGHTX_1-9" value="{ id: &#39;ABC&#39;, title: &#39;concert&#39;, price: 20 }" style="rounded=0;whiteSpace=wrap;html=1;fontSize=13;" parent="HbcU3tZbMtFgkvGHTX_1-1" vertex="1">
          <mxGeometry x="410" y="300" width="230" height="50" as="geometry" />
        </mxCell>
        <mxCell id="HbcU3tZbMtFgkvGHTX_1-10" value="{ title: &#39;concert&#39;, price: 20, id: &#39;ABC&#39; }" style="rounded=0;whiteSpace=wrap;html=1;fontSize=13;" parent="HbcU3tZbMtFgkvGHTX_1-1" vertex="1">
          <mxGeometry x="690" y="300" width="230" height="50" as="geometry" />
        </mxCell>
      </root>
    </mxGraphModel>
  </diagram>
  <diagram id="s2ZtXvtPkM39lvie7NOL" name="04 - concurrency">
    <mxGraphModel dx="791" dy="389" grid="1" gridSize="10" guides="1" tooltips="1" connect="1" arrows="1" fold="1" page="1" pageScale="1" pageWidth="1920" pageHeight="1200" math="0" shadow="0">
      <root>
        <mxCell id="ytgddZ6V1vfilMeZAKQx-0" />
        <mxCell id="ytgddZ6V1vfilMeZAKQx-1" parent="ytgddZ6V1vfilMeZAKQx-0" />
        <mxCell id="ytgddZ6V1vfilMeZAKQx-6" style="edgeStyle=orthogonalEdgeStyle;rounded=0;orthogonalLoop=1;jettySize=auto;html=1;exitX=0.5;exitY=1;exitDx=0;exitDy=0;fontSize=19;" edge="1" parent="ytgddZ6V1vfilMeZAKQx-1" source="ytgddZ6V1vfilMeZAKQx-2" target="ytgddZ6V1vfilMeZAKQx-3">
          <mxGeometry relative="1" as="geometry" />
        </mxCell>
        <mxCell id="ytgddZ6V1vfilMeZAKQx-7" style="edgeStyle=orthogonalEdgeStyle;rounded=0;orthogonalLoop=1;jettySize=auto;html=1;exitX=0.5;exitY=1;exitDx=0;exitDy=0;fontSize=19;" edge="1" parent="ytgddZ6V1vfilMeZAKQx-1" source="ytgddZ6V1vfilMeZAKQx-2" target="ytgddZ6V1vfilMeZAKQx-5">
          <mxGeometry relative="1" as="geometry" />
        </mxCell>
        <mxCell id="ytgddZ6V1vfilMeZAKQx-2" value="Create Ticket with price 5" style="rounded=0;whiteSpace=wrap;html=1;fillColor=#dae8fc;strokeColor=#6c8ebf;fontSize=19;" vertex="1" parent="ytgddZ6V1vfilMeZAKQx-1">
          <mxGeometry x="450" y="100" width="190" height="60" as="geometry" />
        </mxCell>
        <mxCell id="ytgddZ6V1vfilMeZAKQx-3" value="Update ticket price to 10" style="rounded=0;whiteSpace=wrap;html=1;fillColor=#dae8fc;strokeColor=#6c8ebf;fontSize=19;" vertex="1" parent="ytgddZ6V1vfilMeZAKQx-1">
          <mxGeometry x="350" y="210" width="190" height="60" as="geometry" />
        </mxCell>
        <mxCell id="ytgddZ6V1vfilMeZAKQx-5" value="Update ticket price to 15" style="rounded=0;whiteSpace=wrap;html=1;fillColor=#dae8fc;strokeColor=#6c8ebf;fontSize=19;" vertex="1" parent="ytgddZ6V1vfilMeZAKQx-1">
          <mxGeometry x="540" y="230" width="190" height="60" as="geometry" />
        </mxCell>
        <mxCell id="ytgddZ6V1vfilMeZAKQx-8" value="" style="endArrow=classic;html=1;fontSize=19;" edge="1" parent="ytgddZ6V1vfilMeZAKQx-1">
          <mxGeometry width="50" height="50" relative="1" as="geometry">
            <mxPoint x="330" y="100" as="sourcePoint" />
            <mxPoint x="330" y="290" as="targetPoint" />
          </mxGeometry>
        </mxCell>
        <mxCell id="ytgddZ6V1vfilMeZAKQx-9" value="Time" style="text;html=1;strokeColor=none;fillColor=none;align=right;verticalAlign=middle;whiteSpace=wrap;rounded=0;fontSize=19;" vertex="1" parent="ytgddZ6V1vfilMeZAKQx-1">
          <mxGeometry x="210" y="100" width="110" height="20" as="geometry" />
        </mxCell>
        <mxCell id="ytgddZ6V1vfilMeZAKQx-10" value="10ms delay" style="text;html=1;strokeColor=none;fillColor=none;align=left;verticalAlign=middle;whiteSpace=wrap;rounded=0;fontSize=11;" vertex="1" parent="ytgddZ6V1vfilMeZAKQx-1">
          <mxGeometry x="538" y="210" width="110" height="20" as="geometry" />
        </mxCell>
      </root>
    </mxGraphModel>
  </diagram>
</mxfile>
